<svg width="16" height="16" viewBox="0 0 16 16" fill="none" xmlns="http://www.w3.org/2000/svg">
<path d="M8.00033 2.66667C8.73671 2.66667 9.33366 2.06971 9.33366 1.33333C9.33366 0.596954 8.73671 0 8.00033 0C7.26395 0 6.66699 0.596954 6.66699 1.33333C6.66699 2.06971 7.26395 2.66667 8.00033 2.66667Z" fill="#9293A6"/>
<path d="M8.00033 9.33335C8.73671 9.33335 9.33366 8.7364 9.33366 8.00002C9.33366 7.26364 8.73671 6.66669 8.00033 6.66669C7.26395 6.66669 6.66699 7.26364 6.66699 8.00002C6.66699 8.7364 7.26395 9.33335 8.00033 9.33335Z" fill="#9293A6"/>
<path d="M8.00033 16C8.73671 16 9.33366 15.403 9.33366 14.6666C9.33366 13.9303 8.73671 13.3333 8.00033 13.3333C7.26395 13.3333 6.66699 13.9303 6.66699 14.6666C6.66699 15.403 7.26395 16 8.00033 16Z" fill="#9293A6"/>
</svg>
